<?xml version="1.0" standalone="no"?>
<!DOCTYPE svg PUBLIC "-//W3C//DTD SVG 20010904//EN"
 "http://www.w3.org/TR/2001/REC-SVG-20010904/DTD/svg10.dtd">
<svg version="1.0" xmlns="http://www.w3.org/2000/svg"
 width="128.000000pt" height="128.000000pt" viewBox="0 0 128.000000 128.000000"
 preserveAspectRatio="xMidYMid meet">
<metadata>
Created by potrace 1.16, written by Peter Selinger 2001-2019
</metadata>
<g transform="translate(0.000000,128.000000) scale(0.100000,-0.100000)"
fill="#000000" stroke="none">
<path d="M105 1266 c-37 -17 -80 -62 -94 -99 -15 -39 -15 -1015 0 -1054 14
-38 57 -83 96 -99 47 -20 1019 -20 1066 0 39 16 82 61 96 99 7 19 11 199 11
528 0 402 -3 506 -14 532 -16 39 -61 82 -99 96 -45 17 -1023 14 -1062 -3z
m1035 -81 c60 -31 60 -28 60 -545 0 -517 0 -514 -60 -545 -44 -23 -956 -23
-1000 0 -60 31 -60 28 -60 545 0 514 0 513 58 544 41 23 959 23 1002 1z"/>
<path d="M238 1113 c-66 -41 -65 -157 2 -196 35 -21 99 -22 128 -1 28 19 52
65 52 99 0 34 -24 80 -52 99 -29 21 -96 20 -130 -1z"/>
<path d="M195 817 c-3 -7 -4 -158 -3 -337 l3 -325 99 -3 c64 -2 103 1 112 9
19 16 21 638 2 657 -17 17 -207 17 -213 -1z m145 -327 l0 -260 -35 0 -35 0 0
260 0 260 35 0 35 0 0 -260z"/>
<path d="M495 817 c-3 -7 -4 -158 -3 -337 l3 -325 99 -3 c64 -2 103 1 112 9
11 9 14 51 14 199 0 168 2 190 18 211 26 31 78 31 104 0 16 -21 18 -43 18
-211 0 -148 3 -190 14 -199 9 -8 48 -11 112 -9 l99 3 3 240 c2 155 -1 254 -8
278 -14 49 -74 115 -125 138 -46 21 -154 25 -204 8 -24 -9 -35 -9 -44 0 -16
16 -206 15 -212 -2z m147 -98 c4 -47 30 -59 65 -31 42 34 104 62 138 62 45 0
109 -34 136 -71 23 -33 24 -41 27 -241 l3 -208 -35 0 -35 0 -3 184 c-3 181 -3
185 -28 211 -70 75 -170 75 -240 0 -25 -26 -25 -30 -28 -211 l-3 -184 -35 0
-34 0 0 260 0 260 34 0 c32 0 35 -3 38 -31z"/>
</g>
</svg>
