<?xml version="1.0" standalone="no"?>
<!DOCTYPE svg PUBLIC "-//W3C//DTD SVG 20010904//EN"
 "http://www.w3.org/TR/2001/REC-SVG-20010904/DTD/svg10.dtd">
<svg version="1.0" xmlns="http://www.w3.org/2000/svg"
 width="225.000000pt" height="225.000000pt" viewBox="0 0 225.000000 225.000000"
 preserveAspectRatio="xMidYMid meet">
<metadata>
Created by potrace 1.16, written by Peter Selinger 2001-2019
</metadata>
<g transform="translate(0.000000,225.000000) scale(0.100000,-0.100000)"
fill="#000000" stroke="none">
<path d="M1 1723 c1 -482 2 -520 14 -441 64 405 362 753 756 882 148 48 232
59 401 53 210 -7 377 -58 547 -165 292 -184 481 -479 524 -817 2 -16 5 205 6
493 l1 522 -1125 0 -1125 0 1 -527z"/>
<path d="M531 1742 c-24 -44 -35 -158 -23 -223 l11 -63 -36 -54 c-51 -78 -73
-156 -73 -260 1 -216 79 -376 224 -457 59 -32 189 -75 231 -75 11 0 26 -4 34
-9 11 -7 10 -14 -6 -37 -11 -16 -27 -49 -35 -73 -11 -36 -21 -47 -49 -57 -95
-35 -213 0 -265 77 -66 98 -159 160 -219 145 -38 -10 -31 -29 28 -74 42 -32
63 -58 102 -132 40 -76 58 -99 95 -122 65 -41 112 -51 213 -45 l87 6 0 -107
c0 -136 -11 -157 -77 -149 -56 6 -229 92 -314 157 -237 178 -401 446 -444 724
-12 71 -13 21 -14 -416 l-1 -498 1125 0 1125 0 -1 493 c-1 456 -2 486 -15 409
-48 -287 -224 -562 -467 -730 -108 -75 -241 -136 -297 -136 -66 -1 -70 11 -70
247 0 205 -6 244 -47 289 -9 10 -13 21 -9 25 4 4 46 15 94 25 109 22 218 76
273 135 90 98 136 249 126 422 -5 104 -22 157 -77 236 -29 42 -30 46 -19 90
14 56 6 168 -15 220 -16 36 -17 37 -56 31 -58 -9 -138 -41 -205 -81 l-58 -36
-76 18 c-104 23 -309 23 -413 -1 -77 -17 -78 -17 -108 4 -49 35 -172 88 -222
95 -40 6 -48 4 -57 -13z"/>
</g>
</svg>
